<svg id="Layer_2" data-name="Layer 2" xmlns="http://www.w3.org/2000/svg" viewBox="0 0 263.01 231.59"><defs><style>.cls-1{fill:#09ba98;}.cls-2{fill:#35edca;}.cls-3{fill:#9af4e3;}.cls-4{fill:#2bccad;}.cls-5{fill:#0c6856;}.cls-6{fill:#bbfff2;}</style></defs><title>muffin_logo_simple</title><path class="cls-1" d="M214,148.91a33.13,33.13,0,0,0-5.42-.44,30.4,30.4,0,0,0-19,6.3,30.41,30.41,0,0,0-18.84-6.22,29.69,29.69,0,0,0-20.36,7.65,30.92,30.92,0,0,0-40.72,0,29.69,29.69,0,0,0-20.36-7.65,30.59,30.59,0,0,0-17.41,5.28,30.62,30.62,0,0,0-17.42-5.28,33.22,33.22,0,0,0-5.42.44c4.09,11.72,24.19,64.39,24.19,64.39,0,6.27,26.07,11.35,58.23,11.35s58.3-5.14,58.3-11.41v0h0S209.87,160.63,214,148.91Z"/><path class="cls-2" d="M208.92,68.61a79.4,79.4,0,0,0-154.82,0,46.94,46.94,0,0,0-2.66,81.79,11,11,0,0,1,5.07-1.19A10.67,10.67,0,0,1,62,150.65c.43,0,.85-.09,1.32-.08,21.06.61,41.54,2.36,62.58,2,23-.34,42.76,4.6,65.76-1.64a12.7,12.7,0,0,1,1.84-.36,10.52,10.52,0,0,1,6.54-2.08,10.1,10.1,0,0,1,8.19,3.72,46.95,46.95,0,0,0,.69-83.64Z"/><path class="cls-3" d="M52.38,118.08A46.76,46.76,0,0,1,77.52,76.62a79.06,79.06,0,0,1,77-61.45,80.63,80.63,0,0,1,11.06.84,78.94,78.94,0,0,0-117,50.56,46.78,46.78,0,0,0,8,86.23,117.5,117.5,0,0,0,20.61,6.59A46.74,46.74,0,0,1,52.38,118.08Z"/><path class="cls-4" d="M96.05,210.58s-17.25-45.2-23-61a26.76,26.76,0,0,0-3,1.72,30.51,30.51,0,0,0-17.33-5.25,34.13,34.13,0,0,0-5.4.43c4.07,11.66,24.07,64.07,24.07,64.07,0,6.24,25.94,11.3,57.94,11.3,4.21,0,8.31-.1,12.26-.26C115.6,220.52,96.05,216,96.05,210.58Z"/><path class="cls-5" d="M214.87,64.09a86.26,86.26,0,0,0-166.73,0,53.85,53.85,0,0,0,1.54,93.28,10.17,10.17,0,0,1,8.55-11,40.15,40.15,0,0,1-.95-71.68l2.8-1.47.71-3.09a72.53,72.53,0,0,1,141.43,0l.71,3.09,2.8,1.47A40.11,40.11,0,0,1,201,148c6.35.49,9.59,5.56,9.67,10.74a53.8,53.8,0,0,0,4.18-94.6Z"/><path class="cls-5" d="M131.47,231.59c-23.42,0-59.58-2.6-64.93-16.53-2.58-6.75-20.11-52.76-24-63.81l-2.69-7.7,8.06-1.33a39,39,0,0,1,24,3.62c11.53-6,27-5.23,37.77,1.69a38.41,38.41,0,0,1,40.72,0c11.19-7.21,27.63-7.56,39.18-1a39.53,39.53,0,0,1,25.51-4.37l8.06,1.33-2.69,7.7c-3.85,11-21.38,57-24,63.81C191.4,229.12,154.92,231.59,131.47,231.59ZM79.72,211.1c4.17,2.57,22.06,6.76,51.75,6.76s47.62-4.21,51.81-6.8l.08-.21c.16-.44,13.86-36.33,20.83-55.16a22.26,22.26,0,0,0-10.32,4.44l-4.27,3.41-4.28-3.39a23.53,23.53,0,0,0-14.58-4.74,22.9,22.9,0,0,0-15.66,5.79l-4.7,4.42-4.71-4.42a24,24,0,0,0-31.3,0l-4.71,4.42L105,161.2a22.92,22.92,0,0,0-15.66-5.79,23.93,23.93,0,0,0-13.51,4.06l-3.9,2.7-3.9-2.7a23.33,23.33,0,0,0-9.16-3.68c7,18.84,20.66,54.7,20.83,55.14Z"/><path class="cls-6" d="M178.41,85.48a5.26,5.26,0,0,1-3-9.56l12.14-8.62a5.26,5.26,0,0,1,6.09,8.59l-12.14,8.62A5.3,5.3,0,0,1,178.41,85.48Z"/><path class="cls-6" d="M161.91,104.05a5.21,5.21,0,0,1-1.85-.34l-13.94-5.23a5.26,5.26,0,1,1,3.7-9.85l13.94,5.23a5.26,5.26,0,0,1-1.85,10.19Z"/><path class="cls-6" d="M123.14,111.79a5.27,5.27,0,0,1-5.09-4l-3.72-14.42a5.27,5.27,0,0,1,10.2-2.63l3.71,14.42a5.26,5.26,0,0,1-3.78,6.41A5.43,5.43,0,0,1,123.14,111.79Z"/><path class="cls-6" d="M145.89,42a5.33,5.33,0,0,1-2.6-.69L128.9,33.07a5.26,5.26,0,0,1,5.21-9.14l14.39,8.21A5.26,5.26,0,0,1,145.89,42Z"/><path class="cls-6" d="M86.72,73.33a5.18,5.18,0,0,1-2.65-.72L73,66.15a5.26,5.26,0,0,1,5.31-9.08l11.05,6.46a5.26,5.26,0,0,1-2.65,9.8Z"/><path class="cls-6" d="M110.06,68.51a5.26,5.26,0,0,1-3.28-9.38L118,50.21a5.26,5.26,0,1,1,6.54,8.24l-11.24,8.92A5.2,5.2,0,0,1,110.06,68.51Z"/><path class="cls-6" d="M145.89,77.31a5.39,5.39,0,0,1-1.66-.27,5.27,5.27,0,0,1-3.33-6.66l4-12.09a5.26,5.26,0,1,1,10,3.32l-4,12.09A5.28,5.28,0,0,1,145.89,77.31Z"/><path class="cls-6" d="M74.21,107.9a5.27,5.27,0,0,1-3-.92L60,99.28a5.26,5.26,0,1,1,5.94-8.68l11.25,7.7a5.26,5.26,0,0,1-3,9.6Z"/><path class="cls-6" d="M100.67,30.59a6.13,6.13,0,1,0,6.13,6.12A6.13,6.13,0,0,0,100.67,30.59Z"/><path class="cls-6" d="M172.21,42.45a6.13,6.13,0,1,0,6.12,6.12A6.13,6.13,0,0,0,172.21,42.45Z"/><path class="cls-6" d="M94.15,80.81a6.13,6.13,0,1,0,6.12,6.13A6.14,6.14,0,0,0,94.15,80.81Z"/><path class="cls-6" d="M197.48,90.91A6.13,6.13,0,1,0,203.61,97,6.14,6.14,0,0,0,197.48,90.91Z"/></svg>